<?xml version="1.0" encoding="utf-8"?>
<!-- Generator: Adobe Illustrator 25.4.0, SVG Export Plug-In . SVG Version: 6.00 Build 0)  -->
<svg version="1.1" xmlns="http://www.w3.org/2000/svg" xmlns:xlink="http://www.w3.org/1999/xlink" x="0px" y="0px"
	 viewBox="0 0 465.4 176.2" style="enable-background:new 0 0 465.4 176.2;" xml:space="preserve">
<style type="text/css">
	.st0{clip-path:url(#SVGID_00000069363213606582477430000016939250537226627467_);}
	.st1{fill:#FFDB0D;}
	.st2{fill:#0063BF;}
	.st3{clip-path:url(#SVGID_00000052075858693256514870000011044077913209329821_);}
	.st4{fill:#FFFFFF;}
	.st5{fill:#FFFFFF;stroke:#2365B0;stroke-miterlimit:10;}
</style>
<g id="Shadow">
	
		<image style="overflow:visible;" width="256" height="177" xlink:href="F20A6FC4.png"  transform="matrix(1 0 0 1 -0.5283 -0.1328)">
	</image>
</g>
<g id="Flag">
	<g>
		<defs>
			<path id="SVGID_1_" d="M6.1,169c3.7-4.9,39.4,3.3,48,3.3c8.6,0,3.5-5,14-4.2c0.6,0,1.1,0.1,1.7,0.2c10.6,1,27.5,4.7,35.5,3.7
				c4-0.5,3.8-3.8,10.1-1.9c4.7,1.4,8.2,1.6,13.6,0.4c1.9-0.4,4.1-1,6.7-1.8c9.8-3,11.3-2.3,19.5-0.1c8.2,2.2,18.7,2.7,27.6-0.3
				c2.7-0.9,5.5-1.3,8.6-1.2c7,0.1,15.3,2.2,27.2,4.6c17.1,3.3,35.7-2.2,35.7-2.2c-2.1-4.3,1.2-7.7-1.4-21.2
				c-1.7-8.5-2.6-14.3-2.9-18.4c-0.4-5.6,0.2-8.5,1.4-11.7c2.2-5.6,2.6-5.6-0.4-17.9c-0.8-3.4-1-6.7-0.9-10.1
				c0.3-9,3.1-18.6,3.9-30.8c0.3-3.9,0.4-7.5,0.4-10.8c0.1-11.1-0.8-19.4-1.4-25.1c-0.7-7.4,0.9-15.5,0.9-15.5s-4.6,3-12.7,2.5
				C233,9.8,212.5,6,201.7,8.5c-3.4,0.8-7,1.5-10.8,2c-8.3,1.2-16.9,1.6-22.4-0.2c-3.8-1.2-7.9-2-13.3,1.1
				c-4.4,2.5-10.2,1.4-15.8-0.8c-2.4-1-5.6-1.6-9.2-2c-7.8-0.8-17.3-0.1-23.7,2.5c-7.1,3-24.1,3.4-37.2,0.8c-4-0.8-7.6-1.8-10.5-3.1
				c-8.6-3.9-18.1-3.3-27.1-1.1C22.8,10,5.1,7,5.1,7s0.8,22.8,2.1,42.4c0.1,1.9,0.2,3.7,0.4,5.5c1,13.7,1,24.4,0.2,35.4
				c-0.4,5.5-1,11-1.7,17.1c-0.7,5.5-0.9,13.4-1,21.6C5,147.9,6.1,169,6.1,169z"/>
		</defs>
		<clipPath id="SVGID_00000054237873052741541470000006570550162246110396_">
			<use xlink:href="#SVGID_1_"  style="overflow:visible;"/>
		</clipPath>
		<g style="clip-path:url(#SVGID_00000054237873052741541470000006570550162246110396_);">
			<g>
				<path class="st1" d="M6.9,90.2C18.6,90.8,30.3,91,42,89.8c10.3-1.1,20.7-2.6,31-0.6c4.1,0.8,8,2.2,12.2,2.4
					c4.8,0.2,9.7-0.8,14.5-1.4c8.9-1.1,17.2-1,26.2-0.3c9.7,0.7,18.6-1.8,28.2-2c9.9-0.3,19.2,3.3,29.1,3.5
					c10.4,0.3,20.8-3.4,31.1-2c6.1,0.9,11.5,2,17.7,1.2c6.5-0.8,12.4-1.4,18.9-0.5c0,5.3,1,10,2.1,15.2c0.6,2.8,1.3,5.7,0.8,8.5
					c-0.5,2.8-2.1,5.4-2.7,8.2c-0.6,2.9-0.5,5.9-0.2,8.8c0.6,7.4,2.6,14.6,3.5,21.9c0.5,3.6,0.4,7.1,0.2,10.7
					c-0.1,2.3-0.5,4.5,0.6,6.7c-11.6,3.4-24.4,4.4-36.3,2.2c-10.5-1.9-22.2-6.2-33-4c-5.3,1.1-10,2.7-15.5,2.8
					c-5,0.1-9.9-0.5-14.7-1.7c-4.5-1.1-8.5-2.4-13.2-1.7c-4.6,0.7-8.9,2.5-13.4,3.5c-5.3,1.1-9.5,0.4-14.6-0.6
					c-4.2-0.9-6.5,1.8-10.4,2.3c-10.1,1.2-21.2-2.2-31.2-3.5c-4.7-0.6-9.3-1.5-13.1,1.5c-3.8,3-8.1,2.2-12.8,1.6
					c-8.7-1.2-17.3-2.8-26-3.7c-4.1-0.4-12.3-2.2-15.7,1c-0.7-13-1-26-1-39C4.2,117,5.8,103.8,6.9,90.2z"/>
				<path class="st2" d="M4.2,6.3C9,7.1,13.9,7.7,18.9,7.9c7.3,0.3,13.8-1.6,20.9-2.3c12.1-1.2,22.3,5,34.1,6.6
					c9.4,1.2,19.9,1.7,29.2-0.6c4.2-1,8-2.7,12.3-3.3c4.9-0.7,10-0.8,15-0.3c4.5,0.5,8.3,1.9,12.5,3.2c5.3,1.5,9.1,1.1,14.1-1.1
					c5-2.2,8.7-0.9,13.7,0.2c5.1,1.1,10.4,0.9,15.6,0.4c11-1.1,21-4,32.2-3.3c10.9,0.7,26.4,5.9,36.5,0c-2.7,13.4,0.6,27.3,0.4,40.9
					c-0.1,14.2-3.5,27.9-4.3,42c-6.6-0.9-12.4-0.3-18.9,0.5c-6.2,0.8-11.6-0.4-17.7-1.2c-10.3-1.4-20.7,2.2-31.1,2
					c-9.9-0.2-19.1-3.8-29.1-3.5c-9.6,0.3-18.5,2.7-28.2,2c-8.9-0.7-17.3-0.7-26.2,0.3c-4.8,0.6-9.7,1.6-14.5,1.4
					c-4.2-0.2-8.1-1.6-12.2-2.4c-10.3-2-20.7-0.5-31,0.6c-11.7,1.3-23.4,1-35.2,0.4C8.7,62.3,5.2,34.2,4.2,6.3z"/>
			</g>
		</g>
	</g>
</g>
<g id="Texture">
	<g>
		<defs>
			<path id="SVGID_00000016048493463596234140000012261761717409403789_" d="M5.1,7c0,0,17.7,3,26.7,0.8c8.9-2.2,18.5-2.8,27.1,1.1
				c12.5,5.7,38.4,6.1,47.7,2.3c9.3-3.9,25.3-3.5,32.9-0.5c5.5,2.2,11.4,3.3,15.8,0.8c5.4-3,9.5-2.3,13.3-1.1
				c8.1,2.6,22.4,0.6,33.2-1.8c10.8-2.4,31.2,1.4,39.5,1.9c8,0.5,12.7-2.5,12.7-2.5s-1.7,8-0.9,15.5c0.7,7.4,2.1,19.2,0.9,36
				c-1.1,16.7-6,28.6-3,40.9c3,12.3,2.6,12.3,0.4,17.9c-2.2,5.6-2.4,10.1,1.5,30.1c2.6,13.5-0.7,16.9,1.4,21.2
				c0,0-18.5,5.6-35.7,2.2c-17.1-3.3-26.8-6.3-35.7-3.3c-8.9,3-19.4,2.5-27.6,0.3c-8.2-2.2-9.7-2.9-19.5,0.1c-9.8,3-14,3.2-20.3,1.4
				c-6.3-1.9-6.1,1.4-10.1,1.9c-8.4,1.1-26.8-3.1-37.2-3.9c-10.4-0.7-5.4,4.2-14,4.2c-8.6,0-44.1-8-48-3.3c0,0-2.2-43.5,0-61.8
				c2.2-18.2,3-32,1.5-52.5C6.1,34.4,5.1,7,5.1,7z"/>
		</defs>
		<clipPath id="SVGID_00000088094493629069756010000014895386344302452130_">
			<use xlink:href="#SVGID_00000016048493463596234140000012261761717409403789_"  style="overflow:visible;"/>
		</clipPath>
		<g style="clip-path:url(#SVGID_00000088094493629069756010000014895386344302452130_);">
			<g>
				<defs>
					<rect id="SVGID_00000021088542092183178390000000477179009397067137_" x="2.2" y="4.6" width="254.1" height="169.2"/>
				</defs>
				<clipPath id="SVGID_00000041264853312361338170000001793473029218575037_">
					<use xlink:href="#SVGID_00000021088542092183178390000000477179009397067137_"  style="overflow:visible;"/>
				</clipPath>
				<g style="opacity:0.6;clip-path:url(#SVGID_00000041264853312361338170000001793473029218575037_);">
					
						<image style="overflow:visible;" width="418" height="220" xlink:href="F20A6FC3.png"  transform="matrix(1 0 0 1 -79.5283 -21.1328)">
					</image>
				</g>
				<g style="clip-path:url(#SVGID_00000041264853312361338170000001793473029218575037_);">
					
						<image style="overflow:visible;" width="418" height="220" xlink:href="F20A6FCC.png"  transform="matrix(1 0 0 1 -79.5283 -21.1328)">
					</image>
				</g>
			</g>
		</g>
	</g>
	<g>
		<g>
			<path class="st4" d="M200.5,57.2c2.2,0.3,4.2,0.9,5.9,1.9c0,0,0.1,0,0.1,0.1c0.4,0,0.7,0,1.1,0.1c-5.4-3.8-14-3.9-21.3,0.4
				c-4.7,2.8-8,6.8-9.5,11.1c0.2,0,0.5,0,0.7-0.1c0.8-2,1.9-3.9,3.5-5.7c1.6-1.8,3.5-3.4,5.7-4.7c2.2-1.3,4.5-2.2,6.9-2.7
				C196,57.1,198.3,56.9,200.5,57.2z"/>
			<path class="st4" d="M196.3,64.1c0.3-0.1-0.8-1.1-1.3-3.8c-0.4-2.1-2.4-3.1-3.2-2.7s-0.9,2.4,0.2,4.2
				C193.4,64,196,64.3,196.3,64.1z"/>
			<path class="st4" d="M196,50.9c0.3,0.1-0.8,1.1-1,3.7c-0.2,2.1-2.3,3.1-3.3,2.7c-1-0.4-1.2-2.4-0.2-4.2
				C192.7,50.9,195.6,50.7,196,50.9z"/>
			<path class="st4" d="M202.5,52.2c0.2,0.2-0.9,0.7-1.8,2.7c-0.7,1.5-2.5,2-3.1,1.5c-0.5-0.5-0.1-2,1.1-3.2
				C200.2,51.7,202.3,52,202.5,52.2z"/>
			<path class="st4" d="M201.1,62.1c0.2-0.1-0.6-0.9-0.9-2.9c-0.3-1.6-1.7-2.5-2.3-2.2s-0.5,1.7,0.2,3.2
				C199.1,61.9,200.9,62.2,201.1,62.1z"/>
			<path class="st4" d="M205,61.4c0.2-0.1-0.4-0.7-0.6-2.2c-0.1-1.2-1.2-2-1.7-1.8c-0.5,0.2-0.5,1.3,0,2.4
				C203.5,61.2,204.9,61.5,205,61.4z"/>
			<path class="st4" d="M207,55.8c0.1,0.2-0.7,0.2-1.8,1.1c-0.9,0.7-2,0.4-2.2,0c-0.2-0.4,0.5-1.3,1.5-1.6
				C205.8,54.8,207,55.6,207,55.8z"/>
			<path class="st4" d="M209.7,61.2c-0.1,0.2-0.7-0.5-2.5-0.9c-1.3-0.3-2.1-1.6-1.8-2.1c0.3-0.5,1.6-0.4,2.8,0.3
				C209.6,59.4,209.8,61,209.7,61.2z"/>
		</g>
		<path class="st4" d="M181,53.1c-0.1-0.1-0.1-0.3-0.1-0.3c-0.1-0.3-0.1-0.5-0.4-1.9c-0.4-1.5-0.6-2.4-1-3.4
			c-0.2-0.4-0.7-1.5-1.7-2.6c-1.7-1.9-3.7-2.6-4.5-2.9c-2.7-1-4.9-0.7-6.1-0.5c-1.1,0.1-3.1,0.4-5.3,1.8c-2.2,1.4-3.4,3.3-4,4.3
			c-1,1.6-0.9,2.1-2.3,6.2c-0.7,2.1-1.5,4.3-2.7,6.8c-1.1,2.3-1.9,4-3.4,6c-1.3,1.7-2.5,3.3-4.8,4.6c-2.5,1.4-4.9,1.6-5.9,1.6
			c-3.6,0.2-6.3-0.9-8.4-1.8c-3.7-1.6-6-3.7-7.8-5.3c-1.8-1.6-4.7-4.6-7.4-9.2c-2.2-3.7-3.3-7.1-5.1-12.3c-1-2.8-2-6-2-6
			c-2-5.9-2.8-8.4-3.8-8.4c-0.4,0-0.8,0.7-1.5,2.1c-0.4,0.6-1.6,4.4-1.7,7.6c-0.2,3.7,0.2,7.9,0.3,8.3c0.8,3.6,2.2,5.7,2,5.8
			c-0.2,0.1-3.1-4.1-5.9-9.8c-1.7-3.5-3.1-6.3-4.1-10.2c-1.6-6.1-1.6-6.3-1.6-6.3c-0.2-0.7-0.7-5-1.7-5.2c-0.5-0.1-1.1,1-1.8,2.7
			c-1.1,2.4-2,4.6-2.5,8.2c-0.6,4.6,0.1,8.2,0.4,10c0.5,2.6,1.1,4.4,1.8,6.4c0.7,2.1,1.5,4,2.9,6.4c1.2,2,2.2,3.1,2.1,3.2
			c-0.2,0.1-2.6-2.2-4.8-5.1c-0.7-0.9-1.9-2.5-3-4.7c-0.7-1.4-1.2-2.5-2.1-4.8c-0.1-0.3-0.6-1.6-1.6-4.2c-1.6-4.3-1.8-5.1-2.3-5.1
			c-1,0-1.9,3.9-2.2,5.2c-0.3,1.1-0.7,4.6-0.8,6.3c0,1.3-0.1,3.7,0.2,6.4c0.7,5,2.6,8.7,3.5,10.4c2,3.5,4.2,5.8,4.8,6.3
			c3.3,3.2,6.5,4.5,6.3,5c-0.2,0.4-2.5-0.3-4.2-1c-1.8-0.8-3-1.6-5.1-3c-1-0.7-2.1-1.4-3.2-2.3c-4-3.3-5-6.2-5.9-5.9
			c-1,0.3-0.5,3.9-0.4,5c0.3,2.5,1.1,5.9,3.3,9.7c1.2,2.1,2.7,4.8,5.8,7.2c3.5,2.8,7.3,3.9,8.9,4.2c2.2,0.4,3.9,0.6,3.9,0.6
			c2,0.2,3.1,0.2,3.2,0.3c0,0.3-2.3,0.7-4.5,1.1c-2.1,0.4-3.1,0.6-4,0.6c-1.1,0-2.2-0.1-3.9-0.4c-2.3-0.3-2.8-0.5-3.1-0.2
			c-0.7,0.8,1,3.3,1.9,4.4c1.3,1.7,2.9,2.7,3.8,3.2c0.4,0.2,1.7,0.9,3.5,1.3c3,0.6,5.1,0.1,5.1,0.5c0.1,0.3-1.2,0.9-2.2,1.1
			c-0.3,0.1-1.5,0.4-3.9,0.2c-2-0.2-2.8-0.5-3.1-0.1c-0.3,0.5,0.4,1.5,0.8,2.1c0.2,0.3,0.9,1.3,2.4,2.1c1.2,0.7,2.4,0.9,3.2,1.1
			c1.1,0.2,2,0.2,2.7,0.2c0.3,0,1.3,0,2.6-0.2c2.6-0.4,3.9-1,4-0.7c0.1,0.2-1.1,1.1-2.1,1.6c-1.4,0.7-2.6,1-3,1.1
			c-1.7,0.4-2.6,0.1-2.7,0.5c-0.2,0.6,1.4,1.7,1.5,1.8c0.8,0.6,1.6,0.8,2.5,1c1.3,0.3,2.4,0.4,2.7,0.4c0.3,0,1.5,0,3.2-0.4
			c1.6-0.4,2.2-0.8,2.4-0.6c0.3,0.3-0.5,1.7-1.7,2.6c-1.4,1.2-2.6,1.2-2.6,1.5c0,0.5,2.3,1.3,4.7,0.8c2.1-0.4,3-1.6,4-1.1
			c0.8,0.3,1,1.2,1.2,2c0.2,0.7,0.6,2.9-0.6,5.9c-1.1,2.6-2.6,4.3-3.9,5.5c-1,1-2.7,2.6-5.3,3.9c-2,1-3.7,1.5-5.9,2
			c-1.6,0.4-3.3,0.9-5.7,1c-2.7,0.2-4.8-0.1-5.7-0.2c-1.6-0.2-2.5-0.4-3.2-0.7c-0.8-0.4-1.4-0.9-1.7-0.6c-0.2,0.2-0.1,0.6,0.1,1.1
			c0.1,0.5,0.4,1.3,1.1,2.3c0.4,0.5,0.9,1.2,1.8,1.8c0.1,0.1,0.6,0.4,1.2,0.7c2.2,1,4.7,0.4,4.7,0.4c0,0-1.4,0.3-3.6,0.3
			c-0.7,0-1.4,0-1.8,0c-0.6,0-1.5,0-2.6,0.2c-1.8,0.3-2,0.6-2,0.7c-0.4,0.8,1.1,2.2,1.3,2.4c0.5,0.4,1.7,1.5,3.5,1.7
			c1.4,0.2,2.5-0.1,3.6-0.4c1-0.3,1.9-0.7,1.9-0.7c0,0-3,0.7-5.8,2.8c-2.1,1.5-3,2.9-3.2,3.3c-0.5,0.9-0.8,1.6-1.2,3.1
			c-0.5,1.7-0.4,2-0.3,2.2c0.2,0.2,0.6,0.4,2.8-0.4c1.3-0.4,2.7-0.9,4.5-2c0.9-0.6,2-1.2,3.1-2.3c0.4-0.4,0.7-0.7,1.6-1.6
			c0.8-0.8,1.7-1.6,1.8-1.6c0.1,0.1-1.3,1.2-2.4,3.1c-0.4,0.8-1,2-1,3.5c0,1.4,0.5,3.3,1.4,3.5c0.5,0.1,1-0.5,1.9-1.7
			c0.8-1,0.8-1.3,1.7-2.5c0.7-0.9,0.8-0.8,1.6-1.8c0.9-1.1,1.5-2.1,1.5-2c0,0-1.1,1.4-1.6,3.4c-0.2,0.9-0.3,1.5-0.3,1.8
			c0,0.5,0,1.6,0.5,2.8c0.1,0.3,0.8,1.9,1.4,1.8c0.4-0.1,0.5-1,1.1-2.8c0,0,0.3-0.7,1.1-2.5c0.9-2,2-3.5,3-4.8
			c1.6-2.1,3.1-3.5,4.2-4.5c2.3-2.1,4.4-3.5,5.6-4.3c0.7-0.4,2.2-1.4,7.5-3.8c2.7-1.3,5-2.3,8.1-3.5c6.4-2.5,6.8-2.1,12.6-4.4
			c5.8-2.3,9.5-4.3,10.6-4.9c2.9-1.6,5.3-3,8.2-5.4c1.7-1.5,4.6-3.8,7.2-7.8c2.3-3.5,3.4-6.7,3.8-7.9c1.3-4,1.4-7.3,1.4-9.1
			c0-1.8,0.1-4.9-0.8-8.7c-0.9-3.4-2-6-2-6c-0.8-1.8-1.3-2.5-1.5-4.1c-0.3-1.9,0-3.5,0.3-4.6c0.2-0.9,0.8-3.3,2.6-5.8
			c0.9-1.2,1.7-2.3,3.2-3c0.1,0,0,0,2.5-0.8c1.8-0.6,2.4-0.8,3.3-0.7c0.3,0,0.7,0.1,1.4,0.3c0.8,0.2,1.5,0.4,2.4,0.4
			c0.3,0,0.6,0,0.6-0.1c0.1-0.2-1.4-0.5-2.5-1.7c-0.2-0.2-0.9-0.8-0.8-1c0.2-0.2,1.4,0.3,2.3,0.8c1,0.6,1.7,1.2,1.7,1.2
			c0.5,0.5,0.6,0.7,0.8,0.7c0.3-0.1,0-1.6-0.4-2.8c-0.2-0.6-0.5-1.4-1.2-2.2C182.9,55.2,181.3,53.6,181,53.1z"/>
	</g>
	<g>
		<g>
			<path class="st1" d="M266.4,55.2c0.2-2.3,0.4-4.3,0.6-6.2c0.1-1.8,0.3-3.9,0.4-6.4c0.1-2.4,0.2-5,0.2-7.6
				c0.1-2.7,0.1-4.8,0.1-6.4c1.6,0,2.9,0.1,3.9,0.1c1,0,2.3,0,3.8-0.1c1.5-0.1,2.9-0.1,4.4-0.1c1.7,0,3.1,0.1,4.4,0.2
				c1,0.1,1.9,0.3,2.7,0.6s1.5,0.6,2,1s1,0.9,1.4,1.4c0.4,0.5,0.6,1.1,0.8,1.8c0.2,0.7,0.3,1.4,0.3,2.2c0,0.9-0.1,1.7-0.3,2.4
				c-0.2,0.8-0.6,1.5-1,2.1c-0.5,0.7-1.1,1.2-1.8,1.7c-0.7,0.5-1.7,1-3,1.5l1,2.5c0.3,0.7,0.6,1.4,0.9,2.1l2.6,5.7
				c0.1,0.2,0.3,0.7,0.6,1.5c-2.1,0-3.6,0-4.3,0c-0.9,0-2.5,0-4.6,0c-0.2-0.7-0.6-1.9-1.1-3.8c-0.2-0.8-0.4-1.4-0.6-1.8
				c-0.3-0.9-0.8-2.2-1.4-3.9l-2-5.5c0.7,0.1,1.4,0.2,2.1,0.2c0.9,0,1.8-0.1,2.6-0.4c0.8-0.3,1.4-0.7,1.7-1.3
				c0.4-0.6,0.6-1.2,0.6-1.9c0-0.6-0.1-1-0.4-1.5c-0.3-0.4-0.8-0.7-1.4-0.9s-1.6-0.3-3-0.3c-0.5,0-0.9,0-1.4,0s-1.1,0-1.7,0
				c-0.2,2.7-0.3,5.9-0.4,9.7c-0.1,3.8-0.2,7.6-0.2,11.3c-2.2,0-3.6,0-4.2,0C269.7,55.2,268.4,55.2,266.4,55.2z"/>
			<path class="st1" d="M313.3,49.3c-0.2,0.8-0.5,2.7-1,5.6c-1.5,0.3-2.8,0.5-3.8,0.6c-1,0.1-2.1,0.1-3.1,0.1c-1.5,0-3-0.1-4.3-0.3
				c-1.3-0.2-2.4-0.6-3.4-1.1c-0.9-0.5-1.7-1.2-2.4-2c-0.6-0.8-1.1-1.8-1.4-2.9c-0.3-1.1-0.5-2.3-0.5-3.4c0-1.7,0.3-3.3,1-4.9
				c0.7-1.6,1.5-2.8,2.6-3.7c1-0.9,2.2-1.5,3.6-1.9c1.4-0.4,2.8-0.6,4.2-0.6c1.5,0,2.9,0.2,4.2,0.5c1.3,0.3,2.5,0.9,3.4,1.8
				c0.9,0.9,1.6,1.8,2,2.9c0.4,1.1,0.6,2.2,0.6,3.5c0,0.7-0.1,1.6-0.3,2.5l-13.6,0c0,0.2,0,0.4,0,0.6c0,1.4,0.5,2.4,1.5,3.1
				c1,0.7,2.2,1,3.7,1c0.9,0,1.8-0.1,2.9-0.3C310.4,50.2,311.7,49.8,313.3,49.3z M301.4,43.1h6.4c0-0.2,0-0.4,0-0.6
				c0-0.7-0.1-1.3-0.4-1.7s-0.6-0.8-1-1c-0.4-0.2-0.9-0.3-1.5-0.3c-0.4,0-0.8,0.1-1.1,0.2c-0.4,0.1-0.7,0.3-1,0.5
				c-0.3,0.2-0.5,0.5-0.7,0.8s-0.3,0.6-0.4,0.9C301.6,42.1,301.5,42.5,301.4,43.1z M301.5,32.6l0.7-1.6c0.2-0.4,0.4-0.8,0.6-1.3
				l0.6-1.4c1.3,0,2.6,0,3.9,0c1,0,2.4,0,3.9,0l-1.7,1.9c-0.1,0.1-0.4,0.5-0.9,1c-0.5,0.5-0.8,1-1.2,1.4c-1.2,0-2.3,0-3.1,0
				C303.8,32.5,302.8,32.6,301.5,32.6z"/>
			<path class="st1" d="M318.5,55.2c0.2-2.5,0.5-7.2,0.9-14.3H317c0-0.4,0.1-1.3,0.2-2.6c0.1-1.3,0.1-2.3,0.1-2.8h2.8
				c0-0.5,0-1,0-1.3c0-1.2,0.1-2.1,0.2-2.8c0.1-0.7,0.3-1.2,0.7-1.7s0.8-0.9,1.4-1.3s1.3-0.6,2-0.7c0.8-0.1,1.5-0.2,2.4-0.2
				c0.8,0,1.6,0,2.4,0.1s1.9,0.3,3.1,0.6c0,2.1,0.1,3.8,0.3,5.1c-1.3-0.5-2.4-0.7-3.5-0.7c-0.7,0-1.2,0.2-1.6,0.5
				c-0.4,0.3-0.6,0.9-0.6,1.8l0,0.6h4.5c-0.1,1.5-0.2,3.3-0.3,5.4h-4l-0.6,14.3c-1.5,0-2.9,0-4,0C321.3,55.2,320,55.2,318.5,55.2z"
				/>
			<path class="st1" d="M355.2,55.2c-1.5,0-2.7,0-3.7,0c-1.2,0-2.4,0-3.7,0l0-2.7c-0.5,0.6-0.9,1-1.2,1.3c-0.3,0.3-0.7,0.5-1.1,0.8
				c-0.4,0.2-0.8,0.4-1.3,0.6c-0.5,0.2-1,0.3-1.6,0.4c-0.6,0.1-1.2,0.1-1.9,0.1c-1,0-2-0.1-2.9-0.4c-0.9-0.2-1.7-0.6-2.4-1.2
				c-0.7-0.6-1.2-1.2-1.4-1.9c-0.3-0.7-0.4-1.6-0.4-2.5c0-0.2,0-0.6,0.1-1.1l0.3-4.4c0.1-1.6,0.2-3.4,0.3-5.4
				c0.1-1.2,0.1-2.3,0.1-3.4c1.6,0,3,0,4.1,0c1.1,0,2.4,0,3.8,0l-0.6,7.4c-0.1,1.1-0.1,1.9-0.1,2.3c0,0.4,0,0.7,0,0.8
				c0,1.4,0.3,2.3,0.8,2.8s1.2,0.7,2,0.7c0.3,0,0.6,0,0.9-0.1c0.3-0.1,0.6-0.2,0.9-0.4c0.2-0.2,0.5-0.3,0.7-0.6
				c0.2-0.2,0.4-0.5,0.6-0.9c0.2-0.4,0.4-0.9,0.5-1.4c0.1-0.7,0.3-1.6,0.3-2.6c0.1-0.8,0.1-2.1,0.2-4l0.2-4.1c1.7,0,3,0,4.1,0
				c1.2,0,2.4,0,3.6,0c-0.3,3.3-0.5,6.4-0.7,9.4C355.4,47.7,355.3,51.2,355.2,55.2z"/>
			<path class="st1" d="M361.1,57.6c1.7,0.6,3.1,1,4.4,1.2s2.4,0.3,3.3,0.3c0.7,0,1.3-0.1,1.9-0.2c0.6-0.1,1-0.3,1.3-0.6
				c0.3-0.2,0.6-0.5,0.9-0.8c0.2-0.3,0.4-0.7,0.6-1.1c0.1-0.4,0.2-0.9,0.3-1.4c0.1-0.5,0.1-1.3,0.1-2.3c-0.5,0.5-0.9,0.8-1.3,1.1
				c-0.4,0.3-0.8,0.5-1.4,0.8s-1.1,0.4-1.8,0.6s-1.3,0.2-2,0.2c-1.6,0-3.1-0.4-4.5-1.1c-1.3-0.8-2.3-1.8-3-3.2c-0.6-1.4-1-2.9-1-4.5
				c0-1.9,0.3-3.6,1-5.1c0.7-1.5,1.7-2.8,3-3.8c1.3-1,2.7-1.8,4.3-2.2c1.6-0.4,3.3-0.6,5.3-0.6c1.1,0,2.4,0.1,3.8,0.2
				c1.4,0.1,3.4,0.4,5.9,0.9l-0.5,6.4l-0.4,7c0,0.5,0,0.9,0,1.2l-0.2,6.3c0,0.8-0.1,1.6-0.3,2.3c-0.1,0.7-0.4,1.3-0.7,1.8
				c-0.3,0.6-0.8,1.1-1.2,1.5c-0.5,0.5-1.2,0.8-1.8,1.1c-0.7,0.3-1.5,0.5-2.4,0.7c-1,0.2-2.1,0.3-3.2,0.3c-0.6,0-1.4,0-2.3-0.1
				s-1.8-0.1-2.8-0.3s-1.8-0.2-2.5-0.4c-0.7-0.1-1.6-0.3-2.6-0.6l-0.1-2.6C361.3,60.3,361.2,59.3,361.1,57.6z M374.5,40.8
				c-0.8-0.2-1.5-0.2-2.2-0.2c-1.2,0-2.2,0.2-3,0.7s-1.5,1.1-2,2c-0.5,0.9-0.7,1.8-0.7,2.8c0,0.7,0.1,1.4,0.4,1.9
				c0.2,0.6,0.7,1.1,1.2,1.4c0.6,0.3,1.2,0.5,1.8,0.5c0.9,0,1.8-0.3,2.5-1c0.7-0.7,1.2-1.6,1.5-2.8
				C374.3,44.9,374.4,43.2,374.5,40.8z"/>
			<path class="st1" d="M385.7,55.2c0.2-1.6,0.3-2.9,0.4-3.9c0.1-1,0.2-2.3,0.3-3.9c0.1-1.6,0.2-3.4,0.2-5.3
				c0.1-1.9,0.1-4.2,0.2-6.7c1.7,0,3,0,4,0c0.9,0,2.2,0,4,0c-0.2,2.4-0.4,4.6-0.5,6.5c-0.1,1.9-0.2,3.8-0.2,5.9
				c-0.1,3.7-0.1,6.2-0.1,7.5c-1.5,0-2.9,0-4,0C388.9,55.2,387.5,55.2,385.7,55.2z M386.9,32.9c0.1-1.5,0.1-2.8,0.1-3.7
				c0-0.3,0-0.6,0-1c1.6,0,2.9,0,3.9,0c1.5,0,2.7,0,3.8,0c0,0.4-0.1,0.7-0.1,1l-0.1,2.4c0,0.4,0,0.8,0,1.3c-1.3,0-2.5,0-3.7,0
				C389.7,32.8,388.3,32.8,386.9,32.9z"/>
			<path class="st1" d="M417.5,49.3c-0.2,0.8-0.5,2.7-1,5.6c-1.5,0.3-2.8,0.5-3.8,0.6c-1,0.1-2.1,0.1-3.1,0.1c-1.5,0-3-0.1-4.3-0.3
				c-1.3-0.2-2.4-0.6-3.4-1.1c-0.9-0.5-1.7-1.2-2.4-2c-0.6-0.8-1.1-1.8-1.4-2.9c-0.3-1.1-0.5-2.3-0.5-3.4c0-1.7,0.3-3.3,1-4.9
				c0.7-1.6,1.5-2.8,2.6-3.7c1-0.9,2.2-1.5,3.6-1.9c1.4-0.4,2.8-0.6,4.2-0.6c1.5,0,2.9,0.2,4.2,0.5c1.3,0.3,2.5,0.9,3.4,1.8
				c0.9,0.9,1.6,1.8,2,2.9c0.4,1.1,0.6,2.2,0.6,3.5c0,0.7-0.1,1.6-0.3,2.5l-13.6,0c0,0.2,0,0.4,0,0.6c0,1.4,0.5,2.4,1.5,3.1
				c1,0.7,2.2,1,3.7,1c0.9,0,1.8-0.1,2.9-0.3C414.5,50.2,415.9,49.8,417.5,49.3z M405.5,43.1h6.4c0-0.2,0-0.4,0-0.6
				c0-0.7-0.1-1.3-0.4-1.7c-0.2-0.5-0.6-0.8-1-1c-0.4-0.2-0.9-0.3-1.5-0.3c-0.4,0-0.8,0.1-1.1,0.2c-0.4,0.1-0.7,0.3-1,0.5
				c-0.3,0.2-0.5,0.5-0.7,0.8s-0.3,0.6-0.4,0.9C405.7,42.1,405.6,42.5,405.5,43.1z M405.7,32.6l0.7-1.6c0.2-0.4,0.4-0.8,0.6-1.3
				l0.6-1.4c1.3,0,2.6,0,3.9,0c1,0,2.4,0,3.9,0l-1.7,1.9c-0.1,0.1-0.4,0.5-0.9,1c-0.5,0.5-0.8,1-1.2,1.4c-1.2,0-2.3,0-3.1,0
				C407.9,32.5,407,32.6,405.7,32.6z"/>
			<path class="st1" d="M421.6,54.8c-0.1-0.6-0.1-1.2-0.2-1.8c-0.1-0.6-0.1-1.5-0.3-2.6l-0.2-1.4c1.3,0.5,2.3,0.9,3.2,1.1
				c0.9,0.2,1.7,0.4,2.5,0.4c0.6,0,1.1-0.1,1.5-0.2c0.4-0.1,0.7-0.3,0.9-0.5c0.2-0.2,0.3-0.4,0.3-0.7c0-0.2-0.1-0.4-0.2-0.6
				c-0.1-0.2-0.4-0.5-0.9-0.8c-1.1-0.8-2-1.5-2.8-2.1c-0.8-0.6-1.4-1.2-1.8-1.7c-0.4-0.5-0.7-1-0.9-1.6c-0.2-0.6-0.3-1.2-0.3-1.8
				c0-1.1,0.3-2.1,0.9-3c0.6-0.9,1.5-1.6,2.7-2c1.2-0.4,2.7-0.6,4.4-0.6c1.8,0,4.1,0.2,6.9,0.7l0.3,5.4c-1.6-0.6-3.1-0.9-4.5-0.9
				c-1,0-1.8,0.1-2.2,0.3c-0.5,0.2-0.7,0.5-0.7,1c0,0.1,0,0.3,0.1,0.4c0.1,0.1,0.1,0.3,0.3,0.4c0.1,0.1,0.3,0.3,0.5,0.4
				c0.2,0.1,0.7,0.5,1.5,1c0.8,0.5,1.4,1,1.8,1.3c0.7,0.6,1.3,1.1,1.7,1.6c0.4,0.5,0.7,1,0.9,1.6c0.2,0.6,0.3,1.1,0.3,1.7
				c0,0.9-0.2,1.8-0.7,2.5s-1.1,1.4-2,1.9c-0.9,0.5-1.9,0.9-2.9,1.1c-1,0.2-2.1,0.3-3.2,0.3c-0.8,0-1.7-0.1-2.8-0.2
				C424.5,55.4,423.1,55.2,421.6,54.8z"/>
		</g>
		<g>
			<path class="st5" d="M286.2,97.1c-0.2,0.8-0.5,2.7-1,5.6c-1.5,0.3-2.8,0.5-3.8,0.6c-1,0.1-2.1,0.1-3.1,0.1c-1.5,0-3-0.1-4.3-0.3
				c-1.3-0.2-2.4-0.6-3.4-1.1c-0.9-0.5-1.7-1.2-2.4-2s-1.1-1.8-1.4-2.9c-0.3-1.1-0.5-2.3-0.5-3.4c0-1.7,0.3-3.3,1-4.9
				s1.5-2.8,2.6-3.7c1-0.9,2.2-1.5,3.6-1.9c1.4-0.4,2.8-0.6,4.2-0.6c1.5,0,2.9,0.2,4.2,0.5c1.3,0.3,2.5,0.9,3.4,1.8s1.6,1.8,2,2.9
				c0.4,1.1,0.6,2.2,0.6,3.5c0,0.7-0.1,1.6-0.3,2.5l-13.6,0c0,0.2,0,0.4,0,0.6c0,1.4,0.5,2.4,1.5,3.1c1,0.7,2.2,1,3.7,1
				c0.9,0,1.8-0.1,2.9-0.3C283.2,97.9,284.6,97.6,286.2,97.1z M274.2,90.8h6.4c0-0.2,0-0.4,0-0.6c0-0.7-0.1-1.3-0.4-1.7
				c-0.2-0.5-0.6-0.8-1-1c-0.4-0.2-0.9-0.3-1.5-0.3c-0.4,0-0.8,0.1-1.1,0.2c-0.4,0.1-0.7,0.3-1,0.5c-0.3,0.2-0.5,0.5-0.7,0.8
				s-0.3,0.6-0.4,0.9C274.4,89.9,274.3,90.3,274.2,90.8z"/>
			<path class="st5" d="M290.3,103c0.4-2.9,0.7-6.2,0.9-9.7c0.2-3.6,0.3-6.9,0.4-10.1c1.6,0,2.9,0,4,0c1.3,0,2.6,0,3.8,0l-0.2,2.6
				c0.4-0.5,0.8-0.9,1.1-1.1s0.7-0.6,1.2-0.8c0.5-0.3,0.9-0.5,1.5-0.7c0.5-0.2,1.1-0.3,1.7-0.4c0.6-0.1,1.3-0.1,1.9-0.1
				c0.9,0,1.8,0.1,2.7,0.3c0.9,0.2,1.6,0.5,2.2,0.9c0.6,0.4,1.1,0.8,1.5,1.4c0.4,0.6,0.7,1.1,0.8,1.8c0.1,0.6,0.2,1.3,0.2,2
				c0,0.5-0.1,1.6-0.2,3.2l-0.3,7c-0.1,1.4-0.1,2.7-0.1,3.8c-1.3,0-2.5,0-3.7,0c-1.5,0-2.9,0-4.2,0c0.1-1.2,0.2-2.9,0.4-5.3
				c0.1-2.3,0.2-4,0.2-4.9c0-1.5-0.3-2.5-0.8-3.1c-0.6-0.6-1.3-0.9-2.1-0.9c-0.8,0-1.5,0.2-2.1,0.7s-1.2,1.2-1.5,2.1
				s-0.6,2.5-0.8,4.6c-0.1,2.2-0.3,4.3-0.3,6.6c-1.3,0-2.6,0-3.8,0C293.2,102.9,291.8,103,290.3,103z"/>
		</g>
		<g>
			<path class="st2" d="M267,150.3c-0.2-2.8-0.4-5-0.6-6.6c1.5,0.6,2.7,1.1,3.9,1.4s2.1,0.4,3,0.4c1.1,0,2-0.2,2.7-0.5
				c0.7-0.3,1-0.8,1-1.5c0-0.2,0-0.4-0.1-0.6c-0.1-0.2-0.2-0.4-0.4-0.7c-0.2-0.3-0.4-0.5-0.8-0.8l-3.7-3.2c-0.9-0.7-1.5-1.3-1.8-1.6
				c-0.7-0.7-1.2-1.3-1.6-1.8c-0.4-0.6-0.7-1.2-0.8-1.7c-0.2-0.6-0.3-1.2-0.3-1.9c0-0.8,0.1-1.6,0.4-2.3c0.3-0.8,0.7-1.5,1.3-2.1
				s1.3-1.2,2.2-1.7c0.9-0.5,1.9-0.8,3-1s2.1-0.3,3.2-0.3c2.2,0,4.6,0.3,7.2,0.8c0,0.9,0.1,1.7,0.1,2.5s0.2,2.1,0.4,3.9
				c-1.2-0.5-2.3-0.8-3.3-1c-1-0.2-1.8-0.3-2.5-0.3c-1,0-1.9,0.2-2.5,0.6c-0.7,0.4-1,0.8-1,1.4c0,0.3,0.1,0.5,0.2,0.8
				c0.1,0.2,0.3,0.5,0.6,0.9c0.3,0.3,0.7,0.7,1.1,1.1c0.5,0.4,1.2,1,2.2,1.8l1.4,1.1c0.4,0.3,0.9,0.7,1.3,1.2c0.5,0.5,0.9,1,1.2,1.4
				s0.6,0.9,0.8,1.3c0.2,0.4,0.3,0.8,0.4,1.2c0.1,0.4,0.1,0.8,0.1,1.3c0,1.2-0.3,2.3-0.8,3.3c-0.6,1.1-1.3,1.9-2.4,2.6
				c-1,0.7-2.1,1.2-3.4,1.4s-2.5,0.4-3.9,0.4C272.8,151.3,270.2,151,267,150.3z"/>
			<path class="st2" d="M308.2,144.9c-0.2,0.8-0.5,2.7-1,5.6c-1.5,0.3-2.8,0.5-3.8,0.6c-1,0.1-2.1,0.1-3.1,0.1c-1.5,0-3-0.1-4.3-0.3
				c-1.3-0.2-2.4-0.6-3.4-1.1s-1.7-1.2-2.4-2c-0.6-0.8-1.1-1.8-1.4-2.9c-0.3-1.1-0.5-2.3-0.5-3.4c0-1.7,0.3-3.3,1-4.9
				s1.5-2.8,2.6-3.7c1-0.9,2.2-1.5,3.6-1.9c1.4-0.4,2.8-0.6,4.2-0.6c1.5,0,2.9,0.2,4.2,0.5s2.5,0.9,3.4,1.8s1.6,1.8,2,2.9
				c0.4,1.1,0.6,2.2,0.6,3.5c0,0.7-0.1,1.6-0.3,2.5l-13.6,0c0,0.2,0,0.4,0,0.6c0,1.4,0.5,2.4,1.5,3.1c1,0.7,2.2,1,3.7,1
				c0.9,0,1.8-0.1,2.9-0.3C305.3,145.7,306.6,145.4,308.2,144.9z M296.3,138.6h6.4c0-0.2,0-0.4,0-0.6c0-0.7-0.1-1.3-0.4-1.7
				c-0.2-0.5-0.6-0.8-1-1c-0.4-0.2-0.9-0.3-1.5-0.3c-0.4,0-0.8,0.1-1.1,0.2c-0.4,0.1-0.7,0.3-1,0.5c-0.3,0.2-0.5,0.5-0.7,0.8
				s-0.3,0.6-0.4,0.9C296.5,137.7,296.4,138.1,296.3,138.6z M296.4,128.1l0.7-1.6c0.2-0.4,0.4-0.8,0.6-1.3l0.6-1.4
				c1.3,0,2.6,0,3.9,0c1,0,2.4,0,3.9,0l-1.7,1.9c-0.1,0.1-0.4,0.5-0.9,1s-0.8,1-1.2,1.4c-1.2,0-2.3,0-3.1,0
				C298.7,128.1,297.7,128.1,296.4,128.1z"/>
			<path class="st2" d="M329.1,144.6c-0.1,0.5-0.2,1.5-0.5,2.9l-0.5,3.1c-2,0.5-4,0.7-6,0.7c-1.4,0-2.7-0.1-3.7-0.4
				c-1.3-0.3-2.4-0.9-3.4-1.8c-1-0.9-1.8-1.9-2.2-3.1c-0.6-1.4-0.8-3-0.8-4.7c0-1.6,0.3-3.2,0.8-4.6c0.5-1.5,1.3-2.7,2.4-3.7
				c1.1-1,2.2-1.6,3.5-1.9s2.7-0.5,4.3-0.5c0.9,0,1.8,0,2.8,0.1c0.9,0.1,2.1,0.3,3.5,0.6l0,0.4c0,0.5,0.1,0.9,0.1,1.4
				s0.1,1.3,0.1,2.3l0.1,1.7c-1.9-0.6-3.5-1-4.9-1c-1,0-1.9,0.2-2.7,0.6c-0.8,0.4-1.3,1-1.7,1.7c-0.4,0.7-0.6,1.6-0.6,2.6
				c0,1,0.2,1.8,0.5,2.5c0.3,0.7,0.9,1.2,1.6,1.5c0.7,0.3,1.5,0.5,2.4,0.5c0.4,0,1,0,1.6-0.1c0.6-0.1,1.1-0.2,1.6-0.3
				C327.9,145,328.4,144.8,329.1,144.6z"/>
			<path class="st2" d="M354.4,150.8c-1.5,0-2.7,0-3.7,0c-1.2,0-2.4,0-3.7,0l0-2.7c-0.5,0.6-0.9,1-1.2,1.3c-0.3,0.3-0.7,0.5-1.1,0.8
				c-0.4,0.2-0.8,0.4-1.3,0.6c-0.5,0.2-1,0.3-1.6,0.4c-0.6,0.1-1.2,0.1-1.9,0.1c-1,0-2-0.1-2.9-0.4c-0.9-0.2-1.7-0.6-2.4-1.2
				c-0.7-0.6-1.2-1.2-1.4-1.9c-0.3-0.7-0.4-1.6-0.4-2.5c0-0.2,0-0.6,0.1-1.1l0.3-4.4c0.1-1.6,0.2-3.4,0.3-5.4
				c0.1-1.2,0.1-2.3,0.1-3.4c1.6,0,3,0,4.1,0c1.1,0,2.4,0,3.8,0l-0.6,7.4c-0.1,1.1-0.1,1.9-0.1,2.3c0,0.4,0,0.7,0,0.8
				c0,1.4,0.3,2.3,0.8,2.8c0.6,0.5,1.2,0.7,2,0.7c0.3,0,0.6,0,0.9-0.1c0.3-0.1,0.6-0.2,0.9-0.4c0.2-0.2,0.5-0.3,0.7-0.6
				c0.2-0.2,0.4-0.5,0.6-0.9c0.2-0.4,0.4-0.9,0.5-1.4c0.1-0.7,0.3-1.6,0.3-2.6c0.1-0.8,0.1-2.1,0.2-4l0.2-4.1c1.7,0,3,0,4.1,0
				c1.2,0,2.4,0,3.6,0c-0.3,3.3-0.5,6.4-0.7,9.4S354.5,146.7,354.4,150.8z"/>
			<path class="st2" d="M358.8,150.8l0.6-8.6l0.2-5c0-0.9,0-1.8,0-2.7c0-0.9,0-2.1,0-3.5c1.6,0,2.8,0,3.7,0c1.1,0,2.3,0,3.7,0
				l-0.1,2.2c0.5-0.6,0.9-1,1.2-1.3s0.7-0.5,1.1-0.8c0.4-0.2,0.8-0.4,1.3-0.5c0.5-0.1,0.9-0.2,1.4-0.2c0.5,0,1,0.1,1.6,0.2
				c0,1.4,0,2.6,0.1,3.5l0.1,3c-0.7-0.2-1.4-0.3-2-0.3c-0.8,0-1.4,0.1-2,0.3c-0.6,0.2-1.1,0.6-1.5,1c-0.4,0.5-0.8,1-1,1.7
				c-0.3,0.7-0.4,1.8-0.5,3.3c-0.1,1.5-0.2,3.2-0.2,5.1c0,0.7,0,1.5,0.1,2.5c-1.3,0-2.5,0-3.8,0
				C361.6,150.7,360.3,150.7,358.8,150.8z"/>
			<path class="st2" d="M375.8,150.8c0.2-1.6,0.3-2.9,0.4-3.9c0.1-1,0.2-2.3,0.3-3.9c0.1-1.6,0.2-3.4,0.2-5.3
				c0.1-1.9,0.1-4.2,0.2-6.7c1.7,0,3,0,4,0c0.9,0,2.2,0,4,0c-0.2,2.4-0.4,4.6-0.5,6.5c-0.1,1.9-0.2,3.8-0.2,5.9
				c-0.1,3.7-0.1,6.2-0.1,7.5c-1.5,0-2.9,0-4,0C379.1,150.7,377.6,150.7,375.8,150.8z M377,128.4c0.1-1.5,0.1-2.8,0.1-3.7
				c0-0.3,0-0.6,0-1c1.6,0,2.9,0,3.9,0c1.5,0,2.7,0,3.8,0c0,0.4-0.1,0.7-0.1,1l-0.1,2.4c0,0.4,0,0.8,0,1.3c-1.3,0-2.5,0-3.7,0
				C379.8,128.4,378.5,128.4,377,128.4z"/>
			<path class="st2" d="M402.8,145c-0.2,1.1-0.4,2.2-0.6,3.2l-0.4,2.4c-1.3,0.3-2.3,0.5-3,0.5s-1.4,0.1-2.1,0.1
				c-1.1,0-2.1-0.1-2.9-0.3c-0.9-0.2-1.6-0.5-2.1-1c-0.6-0.5-1-1.1-1.2-1.7c-0.2-0.6-0.3-1.3-0.3-2.1c0-0.1,0-0.4,0-0.7
				c0-0.3,0.1-1.1,0.1-2.2l0.4-6.7h-3c0.1-0.9,0.1-2.1,0.2-3.5l0.1-1.8h3.2c0.1-0.6,0.2-1.9,0.3-3.9l3.3-0.7
				c0.6-0.1,1.9-0.4,3.9-0.9c-0.1,1.7-0.2,3.5-0.2,5.5h4.4c-0.1,2.7-0.2,4.5-0.2,5.3h-4.5l-0.2,4.9c0,0.7,0,1.2,0,1.4
				c0,0.6,0.1,1.1,0.2,1.6c0.1,0.4,0.4,0.7,0.7,0.9c0.3,0.2,0.7,0.3,1.1,0.3c0.3,0,0.6,0,1-0.1C401.4,145.4,402,145.3,402.8,145z"/>
			<path class="st2" d="M424.6,144.9c-0.2,0.8-0.5,2.7-1,5.6c-1.5,0.3-2.8,0.5-3.8,0.6c-1,0.1-2.1,0.1-3.1,0.1c-1.5,0-3-0.1-4.3-0.3
				c-1.3-0.2-2.4-0.6-3.4-1.1s-1.7-1.2-2.4-2c-0.6-0.8-1.1-1.8-1.4-2.9c-0.3-1.1-0.5-2.3-0.5-3.4c0-1.7,0.3-3.3,1-4.9
				s1.5-2.8,2.6-3.7c1-0.9,2.2-1.5,3.6-1.9c1.4-0.4,2.8-0.6,4.2-0.6c1.5,0,2.9,0.2,4.2,0.5s2.5,0.9,3.4,1.8c0.9,0.9,1.6,1.8,2,2.9
				c0.4,1.1,0.6,2.2,0.6,3.5c0,0.7-0.1,1.6-0.3,2.5l-13.6,0c0,0.2,0,0.4,0,0.6c0,1.4,0.5,2.4,1.5,3.1c1,0.7,2.2,1,3.7,1
				c0.9,0,1.8-0.1,2.9-0.3C421.6,145.7,422.9,145.4,424.6,144.9z M412.6,138.6h6.4c0-0.2,0-0.4,0-0.6c0-0.7-0.1-1.3-0.4-1.7
				c-0.2-0.5-0.6-0.8-1-1c-0.4-0.2-0.9-0.3-1.5-0.3c-0.4,0-0.8,0.1-1.1,0.2c-0.4,0.1-0.7,0.3-1,0.5c-0.3,0.2-0.5,0.5-0.7,0.8
				s-0.3,0.6-0.4,0.9C412.8,137.7,412.7,138.1,412.6,138.6z M412.7,128.1l0.7-1.6c0.2-0.4,0.4-0.8,0.6-1.3l0.6-1.4
				c1.3,0,2.6,0,3.9,0c1,0,2.4,0,3.9,0l-1.7,1.9c-0.1,0.1-0.4,0.5-0.9,1c-0.5,0.5-0.8,1-1.2,1.4c-1.2,0-2.3,0-3.1,0
				C415,128.1,414,128.1,412.7,128.1z"/>
		</g>
	</g>
</g>
</svg>
